<svg width="350" height="350" viewBox="0 0 350 350" fill="none" xmlns="http://www.w3.org/2000/svg">
<rect width="350" height="350" fill="#09172C"/>
<path d="M230 175.5C230 184.06 223.06 191 214.5 191C205.94 191 199 184.06 199 175.5C199 166.94 205.94 160 214.5 160C223.06 160 230 166.94 230 175.5Z" fill="#CCD6F6"/>
<path d="M190 175.5C190 184.06 183.06 191 174.5 191C165.94 191 159 184.06 159 175.5C159 166.94 165.94 160 174.5 160C183.06 160 190 166.94 190 175.5Z" fill="#CCD6F6"/>
<path d="M150 175.5C150 184.06 143.06 191 134.5 191C125.94 191 119 184.06 119 175.5C119 166.94 125.94 160 134.5 160C143.06 160 150 166.94 150 175.5Z" fill="#CCD6F6"/>
<path d="M106.004 270.113C83.0221 263.668 71.3034 248.987 70.8477 226.07V205.27C70.8477 190.621 64.5651 183.297 52 183.297V165.914C64.5651 165.914 70.8477 158.557 70.8477 143.844V123.141C71.043 111.422 74.0703 101.949 79.9297 94.7227C85.8542 87.4961 94.5456 82.2552 106.004 79L110.691 92.6719C99.4284 96.3177 93.6016 106.279 93.2109 122.555V143.648C93.2109 158.297 87.5794 168.583 76.3164 174.508C87.5794 180.497 93.2109 190.882 93.2109 205.66V226.461C93.6016 242.737 99.4284 252.698 110.691 256.344L106.004 270.113Z" fill="#64FFDA"/>
<path d="M244.688 270.113C267.669 263.668 279.388 248.987 279.844 226.07V205.27C279.844 190.621 286.126 183.297 298.691 183.297V165.914C286.126 165.914 279.844 158.557 279.844 143.844V123.141C279.648 111.422 276.621 101.949 270.762 94.7227C264.837 87.4961 256.146 82.2552 244.688 79L240 92.6719C251.263 96.3177 257.09 106.279 257.48 122.555V143.648C257.48 158.297 263.112 168.583 274.375 174.508C263.112 180.497 257.48 190.882 257.48 205.66V226.461C257.09 242.737 251.263 252.698 240 256.344L244.688 270.113Z" fill="#64FFDA"/>
</svg>
