<svg width="292" height="321" viewBox="0 0 292 321" fill="none" xmlns="http://www.w3.org/2000/svg">
<path d="M145.659 0C226.109 0 291.319 65.219 291.319 145.66C291.319 226.11 226.109 291.319 145.659 291.319C65.209 291.319 0 226.109 0 145.66C0 65.219 65.21 0 145.659 0Z" fill="#3B5998"/>
<g clip-path="url(#clip0)">
<path d="M166.702 306.16L166.612 306.572L166.612 129.916L222.269 185.45C224.986 188.169 228.667 189.661 232.531 189.661C236.394 189.661 240.049 188.169 242.773 185.45L251.419 176.809C254.136 174.092 255.638 170.471 255.638 166.609C255.638 162.746 254.147 159.123 251.429 156.406L156.241 61.209C153.513 58.481 149.879 56.9893 146.014 57.0001C142.127 56.9893 138.491 58.481 135.767 61.209L40.5706 156.406C37.8555 159.123 36.3616 162.744 36.3616 166.609C36.3616 170.471 37.8576 174.092 40.5706 176.809L49.2161 185.45C51.929 188.169 55.5521 189.661 59.4155 189.661C63.2767 189.661 66.7087 188.169 69.4239 185.45L125.392 129.289L125.392 306.358C125.392 314.314 132.249 321 140.202 321L152.429 321C160.382 321 166.702 314.117 166.702 306.16Z" fill="#0A192F"/>
</g>
<defs>
<clipPath id="clip0">
<rect x="278" y="57" width="264" height="264" transform="rotate(90 278 57)" />
</clipPath>
</defs>
</svg>
