<svg  viewBox="0 0 360 360" fill="none" xmlns="http://www.w3.org/2000/svg">
<path d="M179.978 3.74707C80.595 3.74707 0 84.6571 0 184.467C0 264.297 51.57 332.022 123.12 355.94C132.12 357.605 135.405 352.025 135.405 347.232C135.405 342.935 135.247 331.572 135.157 316.497C85.095 327.41 74.52 292.265 74.52 292.265C66.3525 271.385 54.54 265.827 54.54 265.827C38.1825 254.622 55.755 254.847 55.755 254.847C73.8225 256.13 83.3175 273.477 83.3175 273.477C99.3825 301.085 125.46 293.12 135.72 288.485C137.34 276.807 141.997 268.842 147.15 264.32C107.19 259.752 65.16 244.25 65.16 175.017C65.16 155.285 72.18 139.152 83.7 126.507C81.8325 121.94 75.6675 103.557 85.455 78.6946C85.455 78.6946 100.575 73.8346 134.955 97.2121C149.31 93.2071 164.7 91.2046 180.023 91.1371C195.3 91.2271 210.712 93.2071 225.09 97.2346C259.447 73.8571 274.545 78.7171 274.545 78.7171C284.355 103.602 278.19 121.962 276.345 126.53C287.887 139.175 294.84 155.307 294.84 175.04C294.84 244.452 252.765 259.73 212.67 264.207C219.127 269.787 224.887 280.812 224.887 297.665C224.887 321.83 224.662 341.315 224.662 347.232C224.662 352.07 227.902 357.695 237.037 355.917C308.475 331.977 360 264.275 360 184.467C360 84.6571 279.405 3.74707 179.978 3.74707Z" fill="#5C6BC0"/>
</svg>
