<svg width="292" height="292" viewBox="0 0 292 292" fill="none" xmlns="http://www.w3.org/2000/svg">

<path d="M145.659 0C226.109 0 291.319 65.219 291.319 145.66C291.319 226.101 226.109 291.319 145.659 291.319C65.209 291.319 0 226.1 0 145.66C0 65.22 65.21 0 145.659 0Z" fill="#0E76A8"/>
<path d="M51.203 291.998H89.1346V154.177H51.203V291.998ZM198.978 149.403C180.57 149.403 164.098 156.732 152.413 172.908V153.724H114.343V292H152.413V217.224C152.413 201.421 165.695 186.004 182.33 186.004C198.966 186.004 203.068 201.421 203.068 216.837V291.986H241V213.76C240.999 159.423 217.4 149.403 198.978 149.403ZM69.9915 140.404C80.4747 140.404 88.983 131.129 88.983 119.701C88.983 108.273 80.4747 99 69.9915 99C59.5084 99 51 108.275 51 119.703C51 131.131 59.5084 140.404 69.9915 140.404Z" fill="#0A192F"/>


</svg>
