<svg width="705" height="199" viewBox="0 0 705 199" fill="none" xmlns="http://www.w3.org/2000/svg">
<path d="M278.688 145.5H280.188V144V41.625V40.125H278.688H260.969H259.469V41.625V82.7344H216.695V41.625V40.125H215.195H197.406H195.906V41.625V144V145.5H197.406H215.195H216.695V144V100.008H259.469V144V145.5H260.969H278.688Z" stroke="#64FFDA" stroke-width="3"/>
<path d="M309.758 145.5H310.824L311.174 144.493L319.121 121.664H356.648L364.663 144.497L365.015 145.5H366.078H384.641H386.812L386.044 143.469L347.301 41.0941L346.935 40.125H345.898H329.938H328.901L328.534 41.0949L289.862 143.47L289.096 145.5H291.266H309.758ZM325.16 104.32L337.883 67.8999L350.606 104.32H325.16Z" stroke="#64FFDA" stroke-width="3"/>
<path d="M474.93 142.375L452.706 101.12C458.122 98.5859 462.444 95.1055 465.619 90.6609C469.163 85.7186 470.891 79.6551 470.891 72.5625C470.891 62.1848 467.551 54.0537 460.712 48.4131C453.929 42.8179 444.424 40.125 432.406 40.125H396.406H394.906V41.625V144V145.5H396.406H414.195H415.695V144V106.055H433.113L453.224 144.693L453.644 145.5H454.555H473.609H475.109V144V143.086V142.708L474.93 142.375ZM445.846 61.6862L445.846 61.6863L445.855 61.694C448.625 64.3408 450.102 68.1471 450.102 73.3359C450.102 78.2316 448.545 81.9471 445.538 84.6642C442.517 87.3467 438.229 88.7812 432.477 88.7812H415.695V57.4688H432.957C438.923 57.5609 443.128 59.0503 445.846 61.6862Z" stroke="#64FFDA" stroke-width="3"/>
<path d="M546.242 99.7969H547.742V98.2969V84.2344V82.7344H546.242H505.695V57.4688H552.852H554.352V55.9688V41.625V40.125H552.852H486.406H484.906V41.625V144V145.5H486.406H553.344H554.844V144V129.797V128.297H553.344H505.695V99.7969H546.242Z" stroke="#64FFDA" stroke-width="3"/>
<path d="M634.172 129.797V128.297H632.672H587.695V41.625V40.125H586.195H568.406H566.906V41.625V144V145.5H568.406H632.672H634.172V144V129.797Z" stroke="#64FFDA" stroke-width="3"/>
<path d="M180.5 128.5C180.5 136.232 174.232 142.5 166.5 142.5C158.768 142.5 152.5 136.232 152.5 128.5C152.5 120.768 158.768 114.5 166.5 114.5C174.232 114.5 180.5 120.768 180.5 128.5Z" stroke="#CCD6F6" stroke-width="3"/>
<path d="M140.5 128.5C140.5 136.232 134.232 142.5 126.5 142.5C118.768 142.5 112.5 136.232 112.5 128.5C112.5 120.768 118.768 114.5 126.5 114.5C134.232 114.5 140.5 120.768 140.5 128.5Z" stroke="#CCD6F6" stroke-width="3"/>
<path d="M100.5 128.5C100.5 136.232 94.232 142.5 86.5 142.5C78.768 142.5 72.5 136.232 72.5 128.5C72.5 120.768 78.768 114.5 86.5 114.5C94.232 114.5 100.5 120.768 100.5 128.5Z" stroke="#CCD6F6" stroke-width="3"/>
<path d="M56.5989 196.558L57.9662 196.941L58.4239 195.597L63.1114 181.827L63.6021 180.386L62.1534 179.917C56.8623 178.204 52.891 175.035 50.1688 170.381C47.4276 165.695 45.9044 159.417 45.7109 151.443V130.66C45.7109 116.456 40.6201 105.97 30.3246 99.5146C35.0639 96.5724 38.7363 92.7582 41.303 88.0699C44.2662 82.6574 45.7109 76.1627 45.7109 68.6484V47.5728C45.9044 39.5987 47.4276 33.3204 50.1688 28.6343C52.891 23.9807 56.8623 20.8117 62.1534 19.099L63.6053 18.629L63.1103 17.1854L58.4228 3.51351L57.9617 2.16855L56.594 2.5571C44.9221 5.87296 35.9354 11.2509 29.7697 18.7717L29.7697 18.7716L29.7646 18.778C23.6441 26.3265 20.5473 36.1502 20.3479 48.1156L20.3477 48.1281V48.1406V68.8438C20.3477 76.0221 18.8101 81.1261 15.9951 84.4224C13.2188 87.6734 8.98401 89.4141 3 89.4141H1.5V90.9141V108.297V109.797H3C8.98611 109.797 13.2216 111.531 15.9972 114.767C18.8106 118.047 20.3477 123.125 20.3477 130.27V151.07V151.085L20.348 151.1C20.5809 162.814 23.699 172.553 29.8062 180.204C35.909 187.85 44.8876 193.273 56.5989 196.558Z" stroke="#64FFDA" stroke-width="3"/>
<path d="M648.093 196.558L646.725 196.941L646.268 195.597L641.58 181.827L641.089 180.386L642.538 179.917C647.829 178.204 651.8 175.035 654.523 170.381C657.264 165.695 658.787 159.417 658.98 151.443V130.66C658.98 116.456 664.071 105.97 674.367 99.5146C669.627 96.5724 665.955 92.7582 663.388 88.0699C660.425 82.6574 658.98 76.1627 658.98 68.6484V47.5728C658.787 39.5987 657.264 33.3204 654.523 28.6343C651.8 23.9807 647.829 20.8117 642.538 19.099L641.086 18.629L641.581 17.1854L646.269 3.51351L646.73 2.16855L648.097 2.5571C659.769 5.87296 668.756 11.2509 674.922 18.7717L674.922 18.7716L674.927 18.778C681.047 26.3265 684.144 36.1502 684.344 48.1156L684.344 48.1281V48.1406V68.8438C684.344 76.0221 685.881 81.1261 688.696 84.4224C691.473 87.6734 695.707 89.4141 701.691 89.4141H703.191V90.9141V108.297V109.797H701.691C695.705 109.797 691.47 111.531 688.694 114.767C685.881 118.047 684.344 123.125 684.344 130.27V151.07V151.085L684.343 151.1C684.111 162.814 680.992 172.553 674.885 180.204C668.782 187.85 659.804 193.273 648.093 196.558Z" stroke="#64FFDA" stroke-width="3"/>
</svg>
